<svg fill="none" xmlns="http://www.w3.org/2000/svg" viewBox="0 0 14 18"><path d="M12.42 16.93v-1.11c.38-.2.65-.63.65-1.13 0-.69-.5-1.25-1.13-1.25-.62 0-1.12.56-1.12 1.25 0 .5.26.93.65 1.13v1.11a2.27 2.27 0 01-1.6-2.24c0-1.27.93-2.3 2.07-2.3.17 0 .32.02.47.06V3.59h-3.4v13.35h-.95V1.5h-.78V0H.78v1.5H0V18h14v-1.06h-1.58v-.01zm-1.23-5.83h-.95V9.6h.95v1.5zm0-3h-.95V6.6h.95v1.5zm-5.5 1.5v1.5h-.96V9.6h.95zm-.96-1.5V6.6h.95v1.5h-.95zm.95 4.5v1.5h-.95v-1.5h.95zm0-7.5h-.95V3.6h.95v1.5zM2.37 3.6h.95v1.5h-.95V3.6zm0 3h.95v1.5h-.95V6.6zm0 3h.95v1.5h-.95V9.6zm0 3h.95v1.5h-.95v-1.5z" fill="#E3A52E"/></svg>