<svg viewBox="0 0 512.6 512.6" xmlns="http://www.w3.org/2000/svg" fill="#fff"><path d="M155 232v38h46v-45h-40c-3 0-6 3-6 7zM155 302h46v45h-46zM157 80h198v43H157z"/><path d="M422 0H90C75 0 62 12 62 27v458c0 15 13 28 28 28h332c16 0 29-13 29-28V27c0-15-13-27-29-27zM125 79c0-17 14-31 31-31h201c17 0 30 14 30 31v45c0 17-13 31-30 31H156c-17 0-31-14-31-31zm265 337c0 21-18 38-39 38H161c-21 0-38-17-38-38V232c0-22 17-39 38-39h190c21 0 39 17 39 39z"/><path d="M155 416c0 3 3 7 6 7h40v-45h-46zM233 378h47v45h-47zM351 225h-40v45h47v-38c0-4-3-7-7-7zM311 423h40c4 0 7-4 7-7V302h-47zM233 302h47v45h-47zM233 225h47v45h-47z"/></svg>