<svg fill="none" xmlns="http://www.w3.org/2000/svg" viewBox="0 0 14 14"><path d="M4.24 0H.4A.41.41 0 000 .41v.96h4.65V.4A.41.41 0 004.24 0zM13.8 3.91a.41.41 0 00-.42 0L9.32 6.3V4.27a.41.41 0 00-.61-.36L4.65 6.3v-4.1H0v11.4c0 .23.18.41.41.41h13.18c.23 0 .41-.18.41-.41V4.27a.41.41 0 00-.2-.36zm-7.51 7.2c0 .23-.18.42-.41.42H4.24a.41.41 0 01-.41-.41V9.47c0-.22.18-.4.4-.4h1.65c.23 0 .4.18.4.4v1.65zm4.67 0c0 .23-.18.42-.4.42H8.9a.41.41 0 01-.4-.41V9.47c0-.22.18-.4.4-.4h1.64c.23 0 .41.18.41.4v1.65z" fill="#E3A52E"/></svg>