<svg xmlns="http://www.w3.org/2000/svg" viewBox="0 0 512 512"><path d="M435 0H77C61 0 51 10 51 26v460c0 16 10 26 26 26h358c16 0 26-10 26-26V26c0-16-10-26-26-26zM307 435H128c-15 0-26-10-26-25 0-16 11-26 26-26h179c16 0 26 10 26 26 0 15-10 25-26 25zm77-102H128c-15 0-26-10-26-26 0-15 11-25 26-25h256c15 0 26 10 26 25 0 16-11 26-26 26zm0-103H128c-15 0-26-10-26-25 0-16 11-26 26-26h256c15 0 26 10 26 26 0 15-11 25-26 25zm0-102H128c-15 0-26-10-26-26 0-15 11-25 26-25h256c15 0 26 10 26 25 0 16-11 26-26 26z" fill="#fff"/></svg>