<svg width="290" height="79" viewBox="0 0 290 79" fill="none" xmlns="http://www.w3.org/2000/svg">
<path d="M39.5942 78.4707C61.4615 78.4707 79.1885 60.9044 79.1885 39.2353C79.1885 17.5663 61.4615 0 39.5942 0C17.7269 0 0 17.5663 0 39.2353C0 60.9044 17.7269 78.4707 39.5942 78.4707Z" fill="#FF6B00"/>
<path d="M28.8668 28.8534C33.186 28.8534 36.2237 26.0387 36.6242 22.2715H32.3049C32.1447 23.8956 30.7461 25.0435 28.8668 25.0435C26.9875 25.0435 25.5888 23.8956 25.4286 22.2715H21.1094C21.5037 26.0387 24.5475 28.8534 28.8668 28.8534Z" fill="white"/>
<path d="M22.8658 30.2766H17.9858V51.1276L33.1063 39.136V50.4133H37.9863V29.5684L22.8658 41.56V30.2766Z" fill="white"/>
<path d="M58.8241 41.5356C58.3867 44.5884 55.7865 46.6888 52.5024 46.6888C51.0667 46.6888 49.7913 46.2736 48.7561 45.547L62.2192 34.8376C60.2968 31.5894 56.7785 29.5684 52.5393 29.5684C46.1806 29.5684 41.2637 34.282 41.2637 40.3511C41.2637 46.4201 46.1806 51.1338 52.5393 51.1338C58.4175 51.1338 63.0202 47.1711 63.6178 41.5417H58.8241V41.5356ZM52.5455 34.0072C53.8333 34.0072 54.8807 34.3186 55.7495 34.8681L46.4456 42.2377C46.2792 41.6455 46.1868 41.0166 46.1868 40.345C46.1806 36.6998 48.904 34.0072 52.5455 34.0072Z" fill="white"/>
<path d="M113.995 24.7935V30.5328H124.254V33.952H110.329V12.582H123.669V16.0012H113.995V21.4353H121.759L121.266 24.7935H113.995Z" fill="#131D2C"/>
<path d="M137.84 24.6387V18.9299L141.352 18.4414V33.9499H137.84V27.6916H130.754V33.9499H127.242V18.9299L130.754 18.4414V24.6387H137.84V24.6387Z" fill="#131D2C"/>
<path d="M155.647 29.8918C156.528 28.9943 156.972 27.8037 156.972 26.32H160.269C160.269 27.8464 159.923 29.208 159.24 30.4108C158.549 31.6137 157.588 32.5539 156.356 33.2378C155.124 33.9216 153.737 34.2574 152.197 34.2574C150.613 34.2574 149.215 33.9216 147.995 33.25C146.775 32.5784 145.82 31.6442 145.13 30.4414C144.439 29.2385 144.101 27.8648 144.101 26.32C144.101 24.8119 144.452 23.4564 145.148 22.2475C145.844 21.0386 146.812 20.0922 148.044 19.4083C149.276 18.7245 150.663 18.3887 152.203 18.3887C153.762 18.3887 155.154 18.7245 156.374 19.3961C157.594 20.0677 158.549 21.0019 159.221 22.2047L149.116 30.2643C149.936 30.9176 150.952 31.2412 152.166 31.2412C153.602 31.2351 154.766 30.7833 155.647 29.8918ZM148.703 22.7909C147.828 23.6945 147.397 24.8729 147.397 26.32C147.397 26.9123 147.477 27.4801 147.643 28.0296L154.945 22.2292C154.162 21.698 153.251 21.4354 152.203 21.4354C150.737 21.4354 149.572 21.8872 148.703 22.7909Z" fill="#131D2C"/>
<path d="M175.444 19.4213C176.565 20.093 177.434 21.0271 178.063 22.23C178.691 23.4328 178.999 24.7944 178.999 26.3208C178.999 27.8472 178.679 29.2088 178.044 30.4116C177.409 31.6145 176.528 32.5486 175.413 33.2203C174.292 33.8919 173.022 34.2277 171.605 34.2277C169.677 34.2277 168.081 33.5561 166.83 32.2128V39.4481H163.318V18.9329L166.676 18.4444L166.738 20.5814C167.354 19.8915 168.075 19.3542 168.906 18.9817C169.738 18.6032 170.638 18.42 171.605 18.42C173.041 18.4139 174.322 18.7497 175.444 19.4213ZM174.212 29.8133C175.025 28.9279 175.432 27.7618 175.432 26.3208C175.432 24.8738 175.025 23.7076 174.212 22.8283C173.398 21.943 172.326 21.4973 170.989 21.4973C169.652 21.4973 168.574 21.943 167.742 22.8283C166.91 23.7137 166.497 24.8799 166.497 26.3208C166.497 27.7679 166.91 28.9341 167.742 29.8133C168.574 30.6986 169.658 31.1443 170.989 31.1443C172.326 31.1443 173.398 30.6986 174.212 29.8133Z" fill="#131D2C"/>
<path d="M192.308 18.6895V21.8034H185.253V33.9538H181.741V18.6895H192.308Z" fill="#131D2C"/>
<path d="M203.954 29.8918C204.835 28.9943 205.279 27.8037 205.279 26.32H208.575C208.575 27.8464 208.23 29.208 207.546 30.4108C206.856 31.6137 205.895 32.5539 204.663 33.2378C203.43 33.9216 202.044 34.2574 200.504 34.2574C198.92 34.2574 197.521 33.9216 196.301 33.25C195.081 32.5784 194.126 31.6442 193.436 30.4414C192.746 29.2385 192.407 27.8648 192.407 26.32C192.407 24.8119 192.758 23.4564 193.455 22.2475C194.151 21.0386 195.118 20.0922 196.351 19.4083C197.583 18.7245 198.969 18.3887 200.51 18.3887C202.069 18.3887 203.461 18.7245 204.681 19.3961C205.901 20.0677 206.856 21.0019 207.528 22.2047L197.423 30.2643C198.242 30.9176 199.259 31.2412 200.473 31.2412C201.908 31.2351 203.073 30.7833 203.954 29.8918ZM197.004 22.7909C196.129 23.6945 195.698 24.8729 195.698 26.32C195.698 26.9123 195.778 27.4801 195.944 28.0296L203.245 22.2292C202.463 21.698 201.551 21.4354 200.504 21.4354C199.043 21.4354 197.879 21.8872 197.004 22.7909Z" fill="#131D2C"/>
<path d="M222.87 18.6895V21.8034H217.663V33.9538H214.182V21.8034H208.976V18.6895H222.87Z" fill="#131D2C"/>
<path d="M228.415 27.4173L238.736 18.3809H239.044V33.9504H235.562V25.2193L225.242 34.2557H224.934V18.7472L228.415 18.6251V27.4173Z" fill="#131D2C"/>
<path d="M251.675 18.9299L255.156 18.4414V33.9499H251.675V28.3021C250.646 28.5647 249.629 28.699 248.625 28.699C246.53 28.699 244.885 28.1922 243.696 27.1848C242.506 26.1774 241.909 24.7975 241.909 23.0512V18.9299L245.421 18.4414V22.8681C245.421 23.8267 245.692 24.5349 246.24 25.0051C246.782 25.4752 247.633 25.7072 248.779 25.7072C249.869 25.7072 250.831 25.5729 251.675 25.3103V18.9299Z" fill="#131D2C"/>
<path d="M269.544 24.6387V18.9299L273.056 18.4414V33.9499H269.544V27.6916H262.458V33.9499H258.946V18.9299L262.458 18.4414V24.6387H269.544V24.6387Z" fill="#131D2C"/>
<path d="M286.809 19.0955C287.825 19.5717 288.608 20.2433 289.168 21.1104C289.723 21.9774 290 22.9787 290 24.1205V33.9507H286.673L286.642 32.119C286.026 32.8089 285.274 33.3401 284.393 33.7065C283.512 34.0728 282.526 34.256 281.436 34.256C279.754 34.256 278.398 33.8286 277.369 32.9738C276.34 32.119 275.829 31.0016 275.829 29.6156C275.829 28.1686 276.365 27.0085 277.431 26.1354C278.497 25.2623 279.926 24.8226 281.713 24.8226H286.673V24.2426C286.673 23.3878 286.359 22.7162 285.736 22.2277C285.108 21.7392 284.245 21.495 283.13 21.495C282.126 21.495 281.331 21.6843 280.758 22.0629C280.185 22.4414 279.846 22.9421 279.741 23.571H276.229C276.291 22.5757 276.63 21.6843 277.246 20.8967C277.862 20.1151 278.694 19.4985 279.741 19.0466C280.789 18.6009 281.972 18.375 283.284 18.375C284.615 18.3811 285.792 18.6192 286.809 19.0955ZM284.406 30.8185C285.096 30.501 285.644 30.0736 286.051 29.524C286.463 28.9745 286.667 28.364 286.667 27.6923V27.5092H281.984C281.14 27.5092 280.487 27.674 280.012 27.9976C279.538 28.3212 279.304 28.7914 279.304 29.4019C279.304 29.9942 279.556 30.4582 280.055 30.794C280.561 31.1298 281.251 31.3008 282.138 31.3008C282.964 31.2947 283.715 31.136 284.406 30.8185Z" fill="#131D2C"/>
<path d="M117.63 54.6507L125.424 62.6492H120.742L113.841 55.5665V62.6492H110.329V47.6291L113.841 47.1406V54.2538L120.618 47.3849H124.901L117.63 54.6507Z" fill="#131D2C"/>
<path d="M128.814 61.9453C127.563 61.2737 126.583 60.3395 125.887 59.1367C125.191 57.9338 124.839 56.5601 124.839 55.0153C124.839 53.5072 125.197 52.1517 125.905 50.9428C126.614 49.7339 127.6 48.7875 128.863 48.1036C130.126 47.4198 131.537 47.084 133.102 47.084C134.704 47.084 136.127 47.4198 137.372 48.0914C138.617 48.7631 139.584 49.6972 140.28 50.9001C140.977 52.1029 141.328 53.4767 141.328 55.0214C141.328 56.5295 140.97 57.885 140.262 59.0939C139.553 60.3029 138.574 61.2493 137.323 61.9331C136.072 62.6169 134.661 62.9528 133.102 62.9528C131.494 62.9528 130.064 62.6169 128.814 61.9453ZM136.485 58.4956C137.347 57.598 137.779 56.4379 137.779 55.0153C137.779 53.5927 137.347 52.4326 136.485 51.5351C135.622 50.6375 134.495 50.1918 133.096 50.1918C131.697 50.1918 130.563 50.6375 129.695 51.5351C128.82 52.4326 128.388 53.5927 128.388 55.0153C128.388 56.4379 128.826 57.598 129.695 58.4956C130.57 59.3931 131.703 59.8388 133.096 59.8388C134.495 59.8388 135.622 59.387 136.485 58.4956Z" fill="#131D2C"/>
<path d="M160.176 47.0176L162.024 62.6482H158.512L157.588 54.4055L152.689 60.4807H152.381L147.421 54.4055L146.497 62.6482H143.077L144.926 47.0176H145.234L152.597 55.8709L159.867 47.0176H160.176Z" fill="#131D2C"/>
<path d="M179.308 47.3828V62.6471H175.796V50.4967H168.71V62.6471H165.198V47.3828H179.308Z" fill="#131D2C"/>
<path d="M193.066 47.7947C194.083 48.2709 194.866 48.9426 195.426 49.8096C195.981 50.6766 196.258 51.6779 196.258 52.8197V62.6499H192.931L192.9 60.8182C192.284 61.5081 191.532 62.0393 190.651 62.4057C189.77 62.772 188.784 62.9552 187.693 62.9552C186.011 62.9552 184.656 62.5278 183.627 61.673C182.598 60.8182 182.086 59.7008 182.086 58.3148C182.086 56.8678 182.622 55.7077 183.688 54.8346C184.754 53.9615 186.184 53.5219 187.971 53.5219H192.931V52.9418C192.931 52.087 192.617 51.4154 191.994 50.9269C191.366 50.4385 190.503 50.1942 189.388 50.1942C188.384 50.1942 187.589 50.3835 187.016 50.7621C186.443 51.1406 186.104 51.6413 185.999 52.2702H182.487C182.549 51.275 182.887 50.3835 183.504 49.5959C184.12 48.8144 184.952 48.1977 185.999 47.7459C187.046 47.3001 188.23 47.0742 189.542 47.0742C190.873 47.0803 192.05 47.3185 193.066 47.7947ZM190.663 59.5177C191.353 59.2002 191.902 58.7728 192.308 58.2233C192.721 57.6738 192.925 57.0632 192.925 56.3916V56.2084H188.242C187.398 56.2084 186.745 56.3732 186.27 56.6968C185.796 57.0204 185.562 57.4906 185.562 58.1012C185.562 58.6934 185.814 59.1574 186.313 59.4933C186.819 59.8291 187.509 60 188.396 60C189.215 59.9939 189.973 59.8352 190.663 59.5177Z" fill="#131D2C"/>
<path d="M210.485 53.3379V47.6291L213.997 47.1406V62.6492H210.485V56.3908H203.399V62.6492H199.887V47.6291L203.399 47.1406V53.3379H210.485Z" fill="#131D2C"/>
<path d="M218.051 44.0268C217.608 43.5994 217.386 43.0621 217.386 42.4088C217.386 41.7372 217.608 41.1876 218.051 40.7602C218.495 40.3328 219.043 40.1191 219.696 40.1191C220.356 40.1191 220.904 40.3328 221.348 40.7602C221.791 41.1876 222.007 41.7372 222.007 42.4088C222.007 43.0621 221.785 43.5994 221.348 44.0268C220.904 44.4542 220.356 44.6679 219.696 44.6679C219.037 44.6679 218.489 44.4542 218.051 44.0268ZM221.452 62.6493H217.94V47.6292L221.452 47.1407V62.6493Z" fill="#131D2C"/>
<path d="M237.411 62.6471H233.992V57.152H231.127L227.183 62.6471H223.24L227.614 56.6635C226.647 56.2788 225.895 55.6988 225.353 54.9234C224.811 54.1479 224.534 53.2565 224.534 52.2369C224.534 50.7898 225.07 49.6236 226.136 48.7261C227.202 47.8285 228.588 47.3828 230.295 47.3828H237.411V62.6471V62.6471ZM233.992 54.4044V50.283H230.449C229.728 50.283 229.155 50.4723 228.724 50.8448C228.292 51.2233 228.077 51.724 228.077 52.359C228.077 52.994 228.292 53.4885 228.724 53.8549C229.155 54.2212 229.728 54.4044 230.449 54.4044H233.992V54.4044Z" fill="#131D2C"/>
</svg>
