<svg width="85" height="85" viewBox="0 0 85 85" fill="none" xmlns="http://www.w3.org/2000/svg">
<path d="M42.5 85C65.9721 85 85 65.9721 85 42.5C85 19.0279 65.9721 0 42.5 0C19.0279 0 0 19.0279 0 42.5C0 65.9721 19.0279 85 42.5 85Z" fill="#FF6B00"/>
<path d="M30.9849 31.2546C35.6212 31.2546 38.8818 28.2057 39.3116 24.125H34.6754C34.5034 25.8843 33.0021 27.1276 30.9849 27.1276C28.9677 27.1276 27.4664 25.8843 27.2945 24.125H22.6582C23.0815 28.2057 26.3487 31.2546 30.9849 31.2546Z" fill="white"/>
<path d="M24.5433 32.7965H19.3052V55.3825L35.5353 42.393V54.6087H40.7734V32.0293L24.5433 45.0187V32.7965Z" fill="white"/>
<path d="M63.1407 44.9923C62.6711 48.2991 59.8801 50.5743 56.355 50.5743C54.814 50.5743 53.4449 50.1245 52.3338 49.3375L66.7849 37.737C64.7214 34.2184 60.9449 32.0293 56.3947 32.0293C49.5693 32.0293 44.2915 37.1351 44.2915 43.7092C44.2915 50.2833 49.5693 55.3891 56.3947 55.3891C62.7042 55.3891 67.6447 51.0968 68.2862 44.9989H63.1407V44.9923ZM56.4013 36.8375C57.7836 36.8375 58.9079 37.1748 59.8404 37.77L49.8537 45.7528C49.6751 45.1113 49.5759 44.4301 49.5759 43.7026C49.5693 39.7542 52.4926 36.8375 56.4013 36.8375Z" fill="white"/>
</svg>
