<svg width="255" height="69" viewBox="0 0 255 69" fill="none" xmlns="http://www.w3.org/2000/svg">
<path d="M34.8156 69C54.0437 69 69.6312 53.5538 69.6312 34.5C69.6312 15.4462 54.0437 0 34.8156 0C15.5875 0 0 15.4462 0 34.5C0 53.5538 15.5875 69 34.8156 69Z" fill="#FF6B00"/>
<path d="M25.3827 25.3716C29.1807 25.3716 31.8517 22.8965 32.2039 19.584H28.4059C28.265 21.0121 27.0352 22.0214 25.3827 22.0214C23.7302 22.0214 22.5004 21.0121 22.3595 19.584H18.5615C18.9083 22.8965 21.5847 25.3716 25.3827 25.3716Z" fill="white"/>
<path d="M20.1059 26.6228H15.8149V44.9573L29.1105 34.4129V44.3291H33.4015V26L20.1059 36.5443V26.6228Z" fill="white"/>
<path d="M51.7248 36.5229C51.3401 39.2073 49.0537 41.0542 46.166 41.0542C44.9036 41.0542 43.7821 40.6891 42.8719 40.0502L54.71 30.6333C53.0197 27.7771 49.926 26 46.1985 26C40.6072 26 36.2837 30.1447 36.2837 35.4813C36.2837 40.8179 40.6072 44.9627 46.1985 44.9627C51.3672 44.9627 55.4144 41.4783 55.9399 36.5282H51.7248V36.5229ZM46.2039 29.9031C47.3363 29.9031 48.2573 30.1769 49.0212 30.6601L40.8402 37.1403C40.6939 36.6195 40.6126 36.0665 40.6126 35.476C40.6072 32.2708 43.0019 29.9031 46.2039 29.9031Z" fill="white"/>
<path d="M100.237 21.8021V26.8488H109.258V29.8553H97.0137V11.0645H108.743V14.071H100.237V18.8492H107.064L106.63 21.8021H100.237Z" fill="white"/>
<path d="M121.204 21.6661V16.6463L124.292 16.2168V29.8536H121.204V24.3506H114.973V29.8536H111.885V16.6463L114.973 16.2168V21.6661H121.204Z" fill="white"/>
<path d="M136.862 26.2848C137.637 25.4956 138.027 24.4486 138.027 23.144H140.926C140.926 24.4862 140.622 25.6835 140.021 26.7411C139.414 27.7988 138.569 28.6256 137.485 29.2269C136.402 29.8282 135.183 30.1235 133.828 30.1235C132.436 30.1235 131.206 29.8282 130.133 29.2376C129.06 28.647 128.221 27.8256 127.614 26.768C127.007 25.7103 126.709 24.5023 126.709 23.144C126.709 21.8179 127.018 20.626 127.63 19.563C128.242 18.5 129.093 17.6678 130.176 17.0665C131.26 16.4652 132.479 16.1699 133.834 16.1699C135.204 16.1699 136.429 16.4652 137.501 17.0558C138.574 17.6463 139.414 18.4678 140.005 19.5254L131.119 26.6123C131.84 27.1867 132.734 27.4713 133.801 27.4713C135.063 27.4659 136.087 27.0686 136.862 26.2848ZM130.756 20.0408C129.987 20.8354 129.608 21.8716 129.608 23.144C129.608 23.6648 129.678 24.1641 129.824 24.6473L136.245 19.5469C135.556 19.0798 134.755 18.849 133.834 18.849C132.544 18.849 131.52 19.2463 130.756 20.0408Z" fill="white"/>
<path d="M154.27 17.0778C155.256 17.6684 156.02 18.4898 156.573 19.5475C157.125 20.6051 157.396 21.8024 157.396 23.1446C157.396 24.4868 157.114 25.684 156.556 26.7417C155.998 27.7993 155.223 28.6208 154.243 29.2113C153.257 29.8019 152.141 30.0972 150.895 30.0972C149.199 30.0972 147.795 29.5066 146.696 28.3255V34.6875H143.607V16.6483L146.56 16.2188L146.614 18.0979C147.156 17.4912 147.79 17.0188 148.521 16.6913C149.253 16.3584 150.044 16.1973 150.895 16.1973C152.157 16.192 153.284 16.4873 154.27 17.0778ZM153.186 26.2155C153.901 25.4371 154.259 24.4116 154.259 23.1446C154.259 21.8722 153.901 20.8467 153.186 20.0736C152.471 19.2951 151.528 18.9032 150.353 18.9032C149.177 18.9032 148.229 19.2951 147.497 20.0736C146.766 20.8521 146.403 21.8775 146.403 23.1446C146.403 24.417 146.766 25.4424 147.497 26.2155C148.229 26.994 149.182 27.3859 150.353 27.3859C151.528 27.3859 152.471 26.994 153.186 26.2155Z" fill="white"/>
<path d="M169.098 16.4336V19.1717H162.895V29.8556H159.807V16.4336H169.098Z" fill="white"/>
<path d="M179.339 26.2848C180.113 25.4956 180.504 24.4486 180.504 23.144H183.402C183.402 24.4862 183.099 25.6835 182.497 26.7411C181.891 27.7988 181.045 28.6256 179.962 29.2269C178.878 29.8282 177.659 30.1235 176.305 30.1235C174.912 30.1235 173.682 29.8282 172.61 29.2376C171.537 28.647 170.697 27.8256 170.09 26.768C169.484 25.7103 169.186 24.5023 169.186 23.144C169.186 21.8179 169.494 20.626 170.107 19.563C170.719 18.5 171.569 17.6678 172.653 17.0665C173.737 16.4652 174.956 16.1699 176.31 16.1699C177.681 16.1699 178.905 16.4652 179.978 17.0558C181.051 17.6463 181.891 18.4678 182.481 19.5254L173.596 26.6123C174.316 27.1867 175.21 27.4713 176.278 27.4713C177.54 27.4659 178.564 27.0686 179.339 26.2848ZM173.227 20.0408C172.458 20.8354 172.079 21.8716 172.079 23.144C172.079 23.6648 172.149 24.1641 172.295 24.6473L178.716 19.5469C178.028 19.0798 177.226 18.849 176.305 18.849C175.021 18.849 173.997 19.2463 173.227 20.0408Z" fill="white"/>
<path d="M195.972 16.4336V19.1717H191.394V29.8556H188.333V19.1717H183.754V16.4336H195.972Z" fill="white"/>
<path d="M200.848 24.1099L209.923 16.1641H210.194V29.8545H207.133V22.1771L198.058 30.123H197.787V16.4862L200.848 16.3788V24.1099Z" fill="white"/>
<path d="M221.3 16.6463L224.361 16.2168V29.8536H221.3V24.8874C220.396 25.1183 219.502 25.2364 218.618 25.2364C216.776 25.2364 215.33 24.7908 214.284 23.9049C213.238 23.0191 212.713 21.8057 212.713 20.2702V16.6463L215.801 16.2168V20.1092C215.801 20.9521 216.039 21.5749 216.522 21.9883C216.998 22.4017 217.746 22.6057 218.754 22.6057C219.713 22.6057 220.558 22.4876 221.3 22.2567V16.6463Z" fill="white"/>
<path d="M237.013 21.6661V16.6463L240.101 16.2168V29.8536H237.013V24.3506H230.782V29.8536H227.694V16.6463L230.782 16.2168V21.6661H237.013Z" fill="white"/>
<path d="M252.193 16.7917C253.087 17.2105 253.775 17.8011 254.268 18.5634C254.756 19.3258 255 20.2063 255 21.2103V29.854H252.074L252.047 28.2434C251.505 28.8501 250.844 29.3172 250.07 29.6393C249.295 29.9614 248.428 30.1225 247.469 30.1225C245.99 30.1225 244.798 29.7467 243.893 28.995C242.988 28.2434 242.539 27.2609 242.539 26.0422C242.539 24.7698 243.01 23.7497 243.947 22.982C244.885 22.2142 246.141 21.8277 247.713 21.8277H252.074V21.3176C252.074 20.566 251.798 19.9754 251.251 19.5459C250.698 19.1164 249.939 18.9017 248.959 18.9017C248.076 18.9017 247.377 19.0681 246.873 19.401C246.369 19.7338 246.071 20.1741 245.979 20.7271H242.891C242.945 19.8519 243.243 19.0681 243.785 18.3755C244.326 17.6883 245.058 17.1461 245.979 16.7488C246.9 16.3568 247.94 16.1582 249.094 16.1582C250.265 16.1636 251.299 16.373 252.193 16.7917ZM250.08 27.0998C250.687 26.8207 251.169 26.4449 251.527 25.9617C251.89 25.4785 252.069 24.9416 252.069 24.351V24.1899H247.951C247.209 24.1899 246.635 24.3349 246.217 24.6195C245.8 24.904 245.594 25.3174 245.594 25.8543C245.594 26.3751 245.816 26.7831 246.255 27.0784C246.7 27.3737 247.306 27.524 248.087 27.524C248.813 27.5186 249.474 27.379 250.08 27.0998Z" fill="white"/>
<path d="M103.433 48.0548L110.287 55.088H106.169L100.101 48.8601V55.088H97.0132V41.8807L100.101 41.4512V47.7058L106.061 41.6659H109.827L103.433 48.0548Z" fill="white"/>
<path d="M113.267 54.47C112.167 53.8795 111.306 53.058 110.694 52.0004C110.081 50.9427 109.772 49.7347 109.772 48.3764C109.772 47.0503 110.087 45.8585 110.71 44.7954C111.333 43.7324 112.2 42.9002 113.31 42.2989C114.421 41.6976 115.662 41.4023 117.038 41.4023C118.447 41.4023 119.698 41.6976 120.793 42.2882C121.887 42.8788 122.738 43.7002 123.35 44.7579C123.962 45.8155 124.271 47.0235 124.271 48.3818C124.271 49.7079 123.957 50.8998 123.334 51.9628C122.71 53.0258 121.849 53.858 120.749 54.4593C119.649 55.0606 118.409 55.3559 117.038 55.3559C115.624 55.3559 114.367 55.0606 113.267 54.47ZM120.012 51.4367C120.771 50.6474 121.15 49.6274 121.15 48.3764C121.15 47.1255 120.771 46.1054 120.012 45.3162C119.254 44.527 118.262 44.1351 117.032 44.1351C115.803 44.1351 114.806 44.527 114.042 45.3162C113.272 46.1054 112.893 47.1255 112.893 48.3764C112.893 49.6274 113.278 50.6474 114.042 51.4367C114.811 52.2259 115.808 52.6178 117.032 52.6178C118.262 52.6178 119.254 52.2205 120.012 51.4367Z" fill="white"/>
<path d="M140.844 41.3438L142.47 55.0879H139.381L138.569 47.84L134.262 53.182H133.991L129.629 47.84L128.817 55.0879H125.81L127.435 41.3438H127.706L134.18 49.1285L140.573 41.3438H140.844Z" fill="white"/>
<path d="M157.667 41.666V55.088H154.579V44.4041H148.348V55.088H145.26V41.666H157.667Z" fill="white"/>
<path d="M169.765 42.0261C170.659 42.4449 171.347 43.0354 171.84 43.7978C172.328 44.5602 172.572 45.4407 172.572 46.4446V55.0884H169.646L169.619 53.4778C169.077 54.0845 168.416 54.5515 167.641 54.8737C166.866 55.1958 166 55.3569 165.041 55.3569C163.562 55.3569 162.37 54.981 161.465 54.2294C160.56 53.4778 160.11 52.4953 160.11 51.2766C160.11 50.0042 160.582 48.9841 161.519 48.2163C162.456 47.4486 163.713 47.0621 165.284 47.0621H169.646V46.552C169.646 45.8004 169.37 45.2098 168.822 44.7803C168.27 44.3508 167.511 44.136 166.531 44.136C165.647 44.136 164.949 44.3025 164.445 44.6353C163.941 44.9682 163.643 45.4085 163.551 45.9614H160.463C160.517 45.0863 160.815 44.3025 161.356 43.6099C161.898 42.9227 162.63 42.3804 163.551 41.9832C164.472 41.5912 165.512 41.3926 166.666 41.3926C167.836 41.3979 168.871 41.6073 169.765 42.0261ZM167.652 52.3342C168.259 52.055 168.741 51.6792 169.099 51.196C169.462 50.7128 169.64 50.176 169.64 49.5854V49.4243H165.523C164.781 49.4243 164.206 49.5693 163.789 49.8538C163.372 50.1384 163.166 50.5518 163.166 51.0887C163.166 51.6094 163.388 52.0175 163.827 52.3128C164.271 52.608 164.878 52.7584 165.658 52.7584C166.379 52.753 167.045 52.6134 167.652 52.3342Z" fill="white"/>
<path d="M185.082 46.9005V41.8807L188.17 41.4512V55.088H185.082V49.5849H178.851V55.088H175.763V41.8807L178.851 41.4512V46.9005H185.082Z" fill="white"/>
<path d="M191.735 38.7134C191.344 38.3376 191.149 37.8651 191.149 37.2906C191.149 36.7001 191.344 36.2169 191.735 35.8411C192.125 35.4653 192.607 35.2773 193.181 35.2773C193.761 35.2773 194.243 35.4653 194.633 35.8411C195.023 36.2169 195.213 36.7001 195.213 37.2906C195.213 37.8651 195.018 38.3376 194.633 38.7134C194.243 39.0892 193.761 39.2771 193.181 39.2771C192.601 39.2771 192.119 39.0892 191.735 38.7134ZM194.725 55.0883H191.637V41.881L194.725 41.4515V55.0883Z" fill="white"/>
<path d="M208.758 55.088H205.751V50.2561H203.232L199.764 55.088H196.297L200.144 49.8266C199.293 49.4884 198.632 48.9783 198.155 48.2965C197.678 47.6147 197.435 46.8308 197.435 45.9342C197.435 44.6618 197.906 43.6364 198.843 42.8472C199.781 42.0579 201 41.666 202.5 41.666H208.758V55.088ZM205.751 47.8402V44.2162H202.636C202.002 44.2162 201.498 44.3826 201.119 44.7101C200.74 45.043 200.55 45.4832 200.55 46.0416C200.55 46.6 200.74 47.0348 201.119 47.357C201.498 47.6791 202.002 47.8402 202.636 47.8402H205.751Z" fill="white"/>
</svg>
